<?xml version="1.0" encoding="UTF-8" standalone="yes"?>
<svg width="201" height="201" preserveAspectRatio="xMidYMid meet" version="1.2" baseProfile="tiny-ps" xmlns="http://www.w3.org/2000/svg">
  <title>bimi-svg-tiny-12-ps</title>
  <g>
    <ellipse ry="99.74693" rx="100.00619" id="svg_8" cy="100.49522" cx="100.55555" stroke="#000" fill="#f5bd3a"/>
    <g id="svg_1" fill="#000000" transform="translate(0, 241) scale(0.1, -0.1)">
      <path id="svg_2" d="m1812.55557,2581.57858c-3,-5 -8,-36 -12,-69c-4,-33 -11,-74 -16,-90c-11,-37 -75,-92 -149,-130c-29,-15 -83,-46 -119,-70c-36,-24 -104,-57 -151,-75c-47,-17 -92,-37 -101,-44c-9,-6 -46,-81 -82,-166c-105,-250 -144,-327 -170,-345c-20,-13 -36,-14 -93,-6c-38,5 -89,8 -114,7c-30,0 -56,6 -74,17c-26,17 -26,20 -12,36c9,10 16,20 16,23c0,3 -37,-3 -82,-13c-89,-20 -138,-24 -138,-11c0,4 16,23 35,42c41,40 43,50 11,50c-38,0 -75,-17 -149,-67c-37,-25 -69,-44 -72,-41c-3,3 6,36 20,73c26,69 29,115 9,122c-6,2 -37,-28 -68,-67c-77,-95 -95,-91 -47,10c15,30 15,40 5,70c-7,19 -13,48 -13,64c-1,41 -9,29 -42,-65c-16,-46 -43,-112 -60,-148c-35,-76 -42,-72 -60,34c-11,71 -22,95 -43,95c-8,0 -10,-57 -8,-200c3,-181 4,-200 20,-200c9,0 36,-11 59,-24c32,-19 51,-23 86,-19c41,5 59,-2 227,-87c100,-51 184,-99 187,-107c3,-8 -12,-35 -34,-61c-57,-68 -56,-66 -26,-124c26,-49 28,-61 27,-161c-1,-75 2,-107 10,-104c6,2 36,44 66,93c47,76 62,92 105,114c82,40 128,34 275,-35c69,-32 131,-63 138,-68c7,-6 12,-31 12,-61c0,-39 -6,-61 -27,-91c-19,-28 -28,-56 -31,-96l-4,-56l51,-37c41,-28 50,-32 41,-16c-6,12 -9,28 -6,36c3,8 -1,14 -9,14c-19,0 -45,28 -45,50c0,50 72,66 136,30c20,-12 38,-19 40,-17c9,9 -31,49 -68,68c-39,20 -40,22 -35,61c7,48 16,59 31,34c21,-34 48,-67 52,-63c3,2 0,16 -5,31c-9,21 -8,26 6,26c15,0 15,1 0,18c-10,10 -17,28 -17,40c0,21 11,27 70,35c19,2 12,7 -32,21c-56,17 -58,19 -58,51c0,19 6,37 13,42c6,4 57,8 112,9c74,0 110,5 137,18c20,10 49,17 65,16c46,-3 50,-1 63,30c10,25 23,33 73,48c53,16 63,22 70,48c6,20 23,39 53,57c29,17 50,40 59,61c8,19 30,44 49,55c33,21 56,63 56,105c0,18 -5,16 -37,-16c-28,-26 -53,-38 -93,-46c-30,-6 -122,-27 -205,-47c-82,-19 -160,-33 -172,-30c-31,7 -51,46 -31,59c12,7 -5,19 -71,52c-47,23 -95,49 -106,57c-19,14 -18,15 13,34c39,24 133,126 154,168c19,36 42,130 62,244c12,71 19,89 48,120c19,20 43,49 54,64c15,21 41,35 107,57c93,32 181,73 192,90c4,6 -5,10 -21,10l-28,0l32,33c39,40 40,51 6,43c-29,-8 -26,2 9,42c21,23 19,25 -25,22c-50,-3 -34,33 48,106c42,38 71,70 66,72c-6,2 -42,-13 -81,-32c-39,-20 -72,-36 -74,-36c-3,0 -7,19 -10,41c-5,41 -39,90 -50,73zm-587,-1679l0,-36l-32,17c-43,22 -43,21 -28,39c7,8 23,15 36,15c21,0 24,-5 24,-35z"/>
      <path id="svg_3" d="m885.55557,2401.57858c-106,-19 -186,-41 -249,-66c-208,-82 -381,-232 -497,-430c-42,-71 -45,-81 -39,-125c12,-89 15,-90 46,-17c16,38 37,94 46,124c20,65 30,80 53,80c9,0 40,26 68,58c100,115 270,223 427,271c211,65 465,46 659,-50l58,-29l35,21l34,21l-33,21c-54,33 -167,77 -253,98c-77,20 -297,34 -355,23z"/>
      <path id="svg_4" d="m1705.55557,2076.57858c-13,-6 -26,-12 -28,-14c-2,-2 23,-39 56,-82c126,-163 202,-376 202,-566l0,-41l36,35c35,33 36,35 29,94c-15,145 -63,293 -133,410c-39,66 -121,175 -131,174c-3,0 -17,-5 -31,-10z"/>
      <path id="svg_5" d="m8.55557,1341.57858c17,-245 118,-466 292,-639c202,-203 467,-306 750,-292c61,3 121,10 134,15l24,9l-35,26c-33,25 -39,26 -114,21c-43,-4 -118,-1 -167,5c-427,57 -753,385 -808,812c-8,63 -16,89 -25,89c-8,0 -24,10 -36,22l-21,21l6,-89z"/>
      <path id="svg_6" d="m1968.55557,1262.57858c-13,-9 -23,-22 -23,-29c0,-7 -9,-25 -20,-39c-12,-14 -29,-51 -40,-81c-95,-277 -321,-500 -597,-590c-29,-10 -53,-19 -53,-21c0,-1 6,-16 13,-33l13,-30l59,20c150,50 276,128 390,243c131,131 217,280 261,454c29,113 28,128 -3,106z"/>
    </g>
  </g>
</svg>
